#!OML:ASF I:\Actors\actors\Patient Classification 2\Patient 1\Session 1\actor1.ASF
:FULLY-SPECIFIED
:DEGREES
285
root -0.485572 18.6421 5.87331 -1.5485 11.8115 -1.60979
lowerback 4.33277 5.0136 5.80553
upperback -2.98561 7.17872 1.70924
thorax -5.04554 3.38243 -2.03558
lowerneck -9.60356 -5.37205 -0.42103
upperneck 11.0997 -6.11368 -8.5192
head 4.6483 -3.55841 -2.97279
rclavicle -2.98177e-015 -8.74653e-015
rhumerus 24.4864 8.79181 -48.4884
rradius 140.679
rwrist -12.5069
rhand -16.8347 -14.1934
rfingers 7.12502
rthumb 9.39486 -43.964
lclavicle -2.98177e-015 -8.74653e-015
lhumerus -48.5098 -4.90303 90.9823
lradius 51.8713
lwrist -2.79459
lhand -9.45251 -25.8282
lfingers 7.12502
lthumb 16.5108 3.48935
rfemur 0 0 0
rtibia 0
rfoot 0 0
rtoes 0
lfemur -6.11442 -7.11555 -12.9899
ltibia 24.6344
lfoot -19.0063 2.2324
ltoes -56.7922
286
root -0.482168 18.6421 5.87351 -1.55955 11.7732 -1.5776
lowerback 4.34119 5.02636 5.79493
upperback -2.98235 7.19398 1.68075
thorax -5.04327 3.38991 -2.06069
lowerneck -9.62042 -5.38437 -0.345126
upperneck 11.1511 -6.13 -8.58544
head 4.66134 -3.56899 -3.00821
rclavicle 9.06955e-014 8.74653e-015
rhumerus 24.4165 8.79833 -48.5008
rradius 140.71
rwrist -12.4878
rhand -16.8687 -14.2717
rfingers 7.12502
rthumb 9.36199 -44.0438
lclavicle 9.06955e-014 8.74653e-015
lhumerus -48.4952 -4.99872 91.0222
lradius 51.873
lwrist -2.70186
lhand -9.56581 -25.8332
lfingers 7.12502
lthumb 16.4017 3.49333
rfemur 0 0 0
rtibia 0
rfoot 0 0
rtoes 0
lfemur -6.07465 -7.15123 -13.0479
ltibia 24.6213
lfoot -19.0274 2.31953
ltoes -56.7741
287
root -0.479422 18.6417 5.87319 -1.56745 11.7337 -1.55627
lowerback 4.33891 5.02437 5.79179
upperback -2.974 7.18932 1.66044
thorax -5.03118 3.38786 -2.07875
lowerneck -9.55624 -5.37457 -0.259939
upperneck 11.0964 -6.12806 -8.64262
head 4.6289 -3.56571 -3.03527
rclavicle -2.5345e-014 1.11319e-014
rhumerus 24.3821 8.84436 -48.5465
rradius 140.711
rwrist -12.4281
rhand -16.9142 -14.2943
rfingers 7.12502
rthumb 9.31812 -44.0683
lclavicle -2.5345e-014 1.11319e-014
lhumerus -48.4824 -5.03305 91.0323
lradius 51.8837
lwrist -2.60845
lhand -9.65885 -25.8629
lfingers 7.12502
lthumb 16.3121 3.47103
rfemur 0 0 0
rtibia 0
rfoot 0 0
rtoes 0
lfemur -6.03877 -7.18938 -13.0917
ltibia 24.6118
lfoot -19.0779 2.39381
ltoes -56.7977
288
root -0.478158 18.6418 5.87238 -1.55144 11.7041 -1.53875
lowerback 4.32169 5.02492 5.78106
upperback -2.97048 7.18625 1.63102
thorax -5.01526 3.3868 -2.10091
lowerneck -9.49325 -5.37127 -0.131432
upperneck 10.9943 -6.14123 -8.72609
head 4.57897 -3.56869 -3.07682
rclavicle -2.45002e-014 -7.95139e-016
rhumerus 24.3224 8.88733 -48.5956
rradius 140.717
rwrist -12.2686
rhand -16.9511 -14.4231
rfingers 7.12502
rthumb 9.28249 -44.1987
lclavicle -2.45002e-014 -7.95139e-016
lhumerus -48.4944 -5.06967 91.0229
lradius 51.9402
lwrist -2.57014
lhand -9.64848 -25.8501
lfingers 7.12502
lthumb 16.3221 3.48303
rfemur 0 0 0
rtibia 0
rfoot 0 0
rtoes 0
lfemur -6.03735 -7.20308 -13.1189
ltibia 24.604
lfoot -19.1033 2.43767
ltoes -56.8078
289
root -0.477976 18.6423 5.87141 -1.53574 11.6631 -1.55434
lowerback 4.31707 5.03075 5.78724
upperback -2.97752 7.19373 1.6166
thorax -5.01691 3.38986 -2.11943
lowerneck -9.49955 -5.38984 -0.0997619
upperneck 10.9768 -6.16964 -8.74696
head 4.5715 -3.58242 -3.08961
rclavicle -3.32467e-014 -1.66979e-014
rhumerus 24.2731 8.94058 -48.6195
rradius 140.737
rwrist -12.0931
rhand -17.044 -14.6593
rfingers 7.12502
rthumb 9.19285 -44.4389
lclavicle -3.32467e-014 -1.66979e-014
lhumerus -48.5225 -5.07451 91.0199
lradius 51.9914
lwrist -2.58092
lhand -9.53707 -25.8387
lfingers 7.12502
lthumb 16.4294 3.48561
rfemur 0 0 0
rtibia 0
rfoot 0 0
rtoes 0
lfemur -6.04724 -7.20452 -13.1017
ltibia 24.5974
lfoot -19.1032 2.48757
ltoes -56.7655
290
root -0.477738 18.6424 5.87134 -1.54457 11.6078 -1.58527
lowerback 4.31137 5.04274 5.8
upperback -2.96768 7.20985 1.62342
thorax -5.00156 3.3982 -2.11917
lowerneck -9.51016 -5.41356 -0.188232
upperneck 10.9774 -6.19702 -8.67377
head 4.57778 -3.5951 -3.05512
rclavicle -5.81445e-015 -1.90833e-014
rhumerus 24.2785 8.9399 -48.6118
rradius 140.734
rwrist -12.0184
rhand -17.1124 -14.7418
rfingers 7.12502
rthumb 9.12692 -44.5243
lclavicle -5.81445e-015 -1.90833e-014
lhumerus -48.5279 -5.07941 91.0562
lradius 52.0164
lwrist -2.5638
lhand -9.43088 -25.8278
lfingers 7.12502
lthumb 16.5316 3.48799
rfemur 0 0 0
rtibia 0
rfoot 0 0
rtoes 0
lfemur -6.029 -7.20295 -13.0722
ltibia 24.5932
lfoot -19.0981 2.5236
ltoes -56.725
291
root -0.477228 18.6427 5.87185 -1.54348 11.563 -1.59992
lowerback 4.2604 5.04632 5.79565
upperback -2.93954 7.20927 1.63604
thorax -4.94513 3.40081 -2.09697
lowerneck -9.49844 -5.42257 -0.275506
upperneck 10.9351 -6.20747 -8.60505
head 4.56773 -3.59828 -3.01918
rclavicle -5.4467e-014 -4.77083e-015
rhumerus 24.3269 8.89598 -48.5806
rradius 140.707
rwrist -12.0197
rhand -17.1325 -14.6234
rfingers 7.12502
rthumb 9.10747 -44.4068
lclavicle -5.4467e-014 -4.77083e-015
lhumerus -48.503 -5.04752 91.1063
lradius 52.0105
lwrist -2.55119
lhand -9.48702 -25.8285
lfingers 7.12502
lthumb 16.4776 3.49175
rfemur 0 0 0
rtibia 0
rfoot 0 0
rtoes 0
lfemur -6.02283 -7.17417 -13.0592
ltibia 24.5911
lfoot -19.0798 2.52999
ltoes -56.7449
292
root -0.47647 18.6439 5.87076 -1.51393 11.539 -1.59073
lowerback 4.19431 4.9692 5.72575
upperback -2.86685 7.09718 1.72882
thorax -4.85902 3.35368 -1.94642
lowerneck -9.67067 -5.35484 -0.48096
upperneck 10.9297 -6.08162 -8.58855
head 4.60886 -3.54675 -2.98033
rclavicle -1.04561e-013 -2.38542e-014
rhumerus 24.6149 8.98425 -48.5056
rradius 140.671
rwrist -12.0743
rhand -17.1349 -14.4682
rfingers 7.12502
rthumb 9.10521 -44.2516
lclavicle -1.04561e-013 -2.38542e-014
lhumerus -48.4005 -4.64699 91.1518
lradius 51.9931
lwrist -2.64138
lhand -9.60732 -25.8349
lfingers 7.12502
lthumb 16.3618 3.49491
rfemur 0 0 0
rtibia 0
rfoot 0 0
rtoes 0
lfemur -6.05514 -7.19089 -13.0742
ltibia 24.5949
lfoot -19.0915 2.58104
ltoes -56.7706
293
root -0.475263 18.645 5.86903 -1.49663 11.5272 -1.5637
lowerback 4.16428 4.8883 5.65815
upperback -2.79915 6.98245 1.80393
thorax -4.79575 3.30372 -1.81912
lowerneck -9.85635 -5.29172 -0.652534
upperneck 10.9466 -5.96069 -8.60308
head 4.65647 -3.49903 -2.95754
rclavicle 4.51241e-014 1.19271e-014
rhumerus 24.8588 9.06347 -48.4706
rradius 140.684
rwrist -12.1824
rhand -17.026 -14.3672
rfingers 7.12502
rthumb 9.21025 -44.146
lclavicle 4.51241e-014 1.19271e-014
lhumerus -48.3169 -4.28638 91.1719
lradius 51.9927
lwrist -2.75737
lhand -9.61519 -25.8554
lfingers 7.12502
lthumb 16.3542 3.47502
rfemur 0 0 0
rtibia 0
rfoot 0 0
rtoes 0
lfemur -6.07438 -7.2589 -13.1146
ltibia 24.6058
lfoot -19.1418 2.66194
ltoes -56.75
